<?xml version="1.0" encoding="UTF-8"?>
<svg id="Layer_1" data-name="Layer 1" xmlns="http://www.w3.org/2000/svg" viewBox="0 0 227.5 90">
  <defs>
    <style>
      .cls-1 {
        fill: #CED4DA;
      }

      .cls-2 {
        fill: #CED4DA;
      }

      .cls-3 {
        fill: #CED4DA;
      }

      .cls-4 {
        fill: #CED4DA;
      }

      .cls-5 {
        fill: #CED4DA;
      }

      .cls-6 {
        fill: #CED4DA;
      }

      .cls-7 {
        fill: #CED4DA;
      }

      .cls-8 {
        fill: #CED4DA;
      }

      .cls-9 {
        fill: #CED4DA;
      }
    </style>
  </defs>
  <path class="cls-3" d="m-.13,41.08c.04-.1.11-.19.11-.29.16-3.31,1.52-6.12,3.55-8.68,2.05-2.58,4.6-4.5,7.58-5.8,1.58-.69,3.28-1.12,4.94-1.6,1.96-.57,3.98-.72,6.01-.85,2.23-.15,4.43-.03,6.64.24,2.9.35,5.72,1.01,8.47,2,2.53.91,4.88,2.2,7.2,3.53,2.67,1.54,5.31,3.16,8.29,4.07,1.33.4,2.72.63,4.1.82,2.75.38,5.26-.39,7.41-2.04,1.61-1.24,2.83-2.9,3.51-4.85.44-1.26.75-2.56,1.12-3.85.02-.08.1-.15.17-.27,1.39,1.19,2.42,2.6,3.03,4.28.52,1.43.81,2.93.71,4.47-.19,3.08-1.26,5.86-3.08,8.34-1.54,2.09-3.43,3.77-5.79,4.87-1.34.62-2.74,1-4.22,1.11-.67.05-1.35.11-2.02.12-2.28.02-4.47-.47-6.64-1.11-3.13-.92-6.02-2.4-8.99-3.71-2.69-1.19-5.41-2.3-8.18-3.26-1.83-.63-3.74-1.09-5.66-1.36-1.92-.27-3.91-.36-5.84-.23-4.03.27-7.79,1.51-11.11,3.85-2.39,1.68-4.39,3.74-5.83,6.33-.92,1.65-1.55,3.37-1.92,5.31-.13-.12-.26-.19-.32-.29-1.2-2.27-2.31-4.58-2.8-7.13-.17-.88-.22-1.78-.33-2.67,0-.06-.07-.12-.11-.17,0-.39,0-.78,0-1.17Z"/>
  <path class="cls-5" d="m38.59,89.88c-.66-.12-1.33-.23-1.99-.35-2.97-.57-5.71-1.66-8.08-3.58-1.63-1.31-2.97-2.86-3.89-4.73-.77-1.56-1.28-3.22-1.49-4.97-.22-1.91-.18-3.79.5-5.6.84-2.26,2.24-4.02,4.6-4.88,1.21-.44,2.44-.54,3.72-.39,3.08.36,5.89,1.68,8.82,2.55,2.3.69,4.58,1.47,6.9,2.08,1.49.39,3.04.62,4.58.79,1.29.14,2.6.18,3.89.11,1.82-.1,3.59-.51,5.27-1.22.35-.15.72-.28,1.18-.46-.87,2.98-2.42,5.34-4.78,7.17-1.61,1.25-3.43,2.11-5.43,2.46-1.84.33-3.72.24-5.55-.22-2.28-.57-4.54-1.23-6.84-1.71-1.63-.34-3.32-.42-4.99-.14-1.89.32-2.94,2.43-1.61,4.23,1.31,1.78,3.17,2.77,5.28,3.25,1,.22,2.05.37,3.07.35,2.2-.05,4.38-.38,6.5-1.02,1.27-.39,2.55-.76,3.96-1.06-.51.88-.96,1.81-1.54,2.64-1.53,2.19-3.66,3.56-6.22,4.24-.81.21-1.66.26-2.49.38-.08.01-.15.07-.23.11h-3.16Z"/>
  <path class="cls-9" d="m31.57,0c.53.12,1.05.26,1.58.35,2.45.42,4.71,1.27,6.59,2.97,1.81,1.63,2.82,3.68,3.16,6.06.15,1.07.18,2.15.24,3.23.02.31-.07.63-.11.99,1.03-.21,1.84-.68,2.6-1.28,2.25-1.76,3.62-4.13,4.71-6.7.46-1.08.88-2.17,1.31-3.26,2.61,2.92,3.15,11.03-2.3,15.73.15.11.29.24.44.31,2.24,1.05,4.55,1.85,7.07,1.71,1.8-.1,3.47-.63,4.82-1.87.83-.77,1.57-1.65,2.37-2.51.01.02.13.12.14.22.06.42.16.85.11,1.26-.14,1.33-.22,2.69-.55,3.97-.78,2.98-2.8,4.82-5.72,5.67-1.93.56-3.84.27-5.61-.57-1.89-.89-3.72-1.91-5.52-2.96-3.9-2.27-7.95-4.17-12.36-5.16-1.8-.4-3.65-.64-5.49-.84-1.47-.17-2.97-.28-4.45-.23-2.23.08-4.46.28-6.67.75-1.97.43-3.88.97-5.72,1.77-.09.04-.22,0-.39,0,1.46-1.64,3.07-3.03,4.88-4.18,2.97-1.88,6.19-3.14,9.67-3.62,1.74-.24,3.51-.33,5.26-.32,1.3,0,2.59.27,3.89.41.29.03.5.04.64-.37.58-1.75.29-3.39-.45-5-1.05-2.27-2.8-3.93-4.79-5.36-.39-.28-.81-.5-1.2-.78-.12-.09-.18-.27-.27-.42.7,0,1.4,0,2.11,0Z"/>
  <path class="cls-4" d="m17.52,78.34c-.74-.6-1.5-1.18-2.23-1.79-.47-.39-.94-.8-1.37-1.24-2.42-2.47-4.21-5.35-5.22-8.66-.35-1.14-.43-2.35-.64-3.54-.34-1.92.02-3.79.48-5.62.52-2.07,1.43-4,2.79-5.65.93-1.14,1.93-2.26,3.06-3.19,2.19-1.8,4.72-2.98,7.53-3.47.9-.16,1.82-.31,2.73-.34,3.16-.13,6.23.43,9.17,1.57,3.02,1.17,5.96,2.52,8.97,3.73,2.88,1.16,5.79,2.25,8.84,2.93,2.59.58,5.2.84,7.84.65,1.77-.13,3.46-.57,5.09-1.27,2.21-.94,4.07-2.33,5.66-4.11.34-.38.59-.83.99-1.41,0,.86.11,1.59-.02,2.27-.32,1.62-.64,3.25-1.18,4.8-.89,2.59-2.14,5.01-4.12,6.98-1.49,1.47-3.3,2.34-5.28,2.89-1.53.42-3.1.65-4.68.59-2.04-.07-4.06-.31-6.01-.97-1.71-.57-3.43-1.11-5.13-1.72-1.31-.48-2.58-1.06-3.88-1.57-2.58-1.01-5.18-1.98-7.93-2.37-1.71-.25-3.47-.3-5.2-.22-2.47.12-4.77.88-6.8,2.37-2.06,1.51-3.35,3.57-4.15,5.95-.63,1.87-.83,3.82-.69,5.78.14,1.9.55,3.77,1.2,5.57.11.31.2.64.3.96-.04.03-.08.07-.12.1Z"/>
  <path class="cls-7" d="m163.09,70.56c-1.6,4.94-3.2,9.88-4.81,14.87-1.15,0-2.29.02-3.44-.02-.15,0-.37-.29-.44-.48-.34-1.01-.63-2.03-.95-3.05-.5-1.6-1.01-3.19-1.52-4.79-.74-2.34-1.48-4.69-2.22-7.03-.6-1.89-1.2-3.77-1.79-5.66-.05-.17-.07-.36-.1-.57h4.48c1.39,5.03,2.76,10.04,4.14,15.05.04.01.07.02.11.03,1.59-5.03,3.18-10.06,4.77-15.1,1.16,0,2.27-.01,3.38.01.15,0,.38.18.42.32,1.16,3.55,2.31,7.12,3.45,10.68.42,1.3.83,2.61,1.24,3.91.02.06.06.12.15.3,1.39-5.14,2.75-10.15,4.12-15.19h4.54c-.33,1.03-.66,2.03-.97,3.03-1.56,4.99-3.12,9.99-4.69,14.98-.33,1.07-.71,2.12-1.02,3.19-.1.34-.26.41-.57.41-.95-.01-1.91.01-2.86-.02-.18,0-.48-.16-.52-.3-.84-2.56-1.66-5.12-2.48-7.68-.66-2.08-1.31-4.15-1.98-6.23-.07-.23-.19-.44-.29-.66-.05,0-.1.02-.15.03Z"/>
  <path class="cls-6" d="m102.68,50.68h-6.18v-3.62h10.33c.45,4.4-1.11,9.62-5.85,11.77-2,.9-4.11,1.15-6.24.94-1.98-.2-3.86-.79-5.55-1.96-1.93-1.34-3.16-3.14-3.92-5.33-.62-1.75-.72-3.57-.57-5.37.22-2.66,1.22-5.04,3.16-6.93,1.41-1.37,3.13-2.21,5.05-2.62,3.44-.75,6.76-.46,9.9,1.19.58.3,1.1.7,1.65,1.05.28.18.22.34.05.56-.8,1-1.59,2.02-2.41,3.05-.5-.32-.97-.68-1.49-.95-2.56-1.38-5.21-1.67-7.91-.44-1.74.79-2.79,2.24-3.33,4.04-.78,2.63-.39,5.08,1.34,7.26,1.03,1.29,2.44,1.95,4,2.25,2.05.4,4.01.1,5.74-1.16.99-.72,1.69-1.68,2.02-2.87.07-.25.12-.51.2-.86Z"/>
  <path class="cls-6" d="m136.68,86.02c-2.47-.1-4.73-.74-6.74-2.14-1.84-1.28-3.1-3.02-3.83-5.13-.49-1.41-.77-2.87-.73-4.35.08-2.53.73-4.93,2.35-6.92,1.42-1.74,3.22-2.95,5.42-3.61,1.65-.5,3.33-.54,4.98-.41,2.17.18,4.18.98,5.92,2.35,2.19,1.72,3.46,4,3.85,6.71.48,3.3,0,6.45-2.11,9.16-1.56,2.01-3.6,3.34-6.11,3.86-1,.21-2.01.32-3.02.48Zm-6.86-11.3c-.09,1,.18,2.07.62,3.09,1.25,2.88,4.29,4.48,7.45,3.95,2.69-.45,4.53-1.93,5.43-4.52.55-1.6.53-3.25.1-4.85-1.02-3.83-4.57-5.54-8.33-4.78-2.72.55-5.29,3.01-5.27,7.12Z"/>
  <path class="cls-6" d="m102.6,76.88h-6.08v-3.68h10.38c0,.62.06,1.24-.01,1.84-.15,1.16-.29,2.34-.58,3.46-.75,2.87-2.45,5.04-5.12,6.34-1.31.64-2.73.98-4.22,1.05-2.17.1-4.27-.19-6.24-1.1-2.17-1-3.8-2.59-4.85-4.76-1-2.06-1.35-4.25-1.18-6.51.16-2.18.83-4.24,2.17-5.98,1.4-1.8,3.25-3.01,5.46-3.67,1.83-.55,3.71-.59,5.57-.43,2.33.2,4.49,1.01,6.38,2.42.12.09.25.18.37.27.01.01.02.03.05.09-.8,1.04-1.61,2.11-2.44,3.15-.06.07-.36.04-.48-.04-1.09-.76-2.24-1.38-3.54-1.65-2.72-.56-5.27-.29-7.31,1.84-1.09,1.13-1.61,2.54-1.82,4.1-.26,1.91.15,3.65,1.18,5.23,1.24,1.91,3.11,2.76,5.33,2.94,1.7.14,3.31-.13,4.71-1.16,1.25-.92,2.1-2.11,2.28-3.76Z"/>
  <path class="cls-8" d="m99.19,21.62c.34.11.57.19.8.27,1.83.58,2.92,1.83,3.27,3.7.24,1.24.2,2.47-.21,3.7-.57,1.68-1.74,2.73-3.35,3.36-1,.39-2.04.54-3.13.53-2.86-.03-5.73,0-8.59,0-.21,0-.42,0-.68,0V11.5c.1-.01.19-.03.28-.03,2.88,0,5.77-.02,8.65.03,1.56.03,3.07.37,4.34,1.39,1.11.89,1.68,2.06,1.75,3.46.06,1.19-.02,2.35-.69,3.4-.57.89-1.4,1.41-2.45,1.87Zm-7.87,7.83c.09.03.14.06.19.06,1.42,0,2.85.01,4.27,0,.44,0,.89-.04,1.31-.15,1.5-.39,2.09-1.31,2.09-3.05,0-.87-.76-2.17-2.14-2.31-1.25-.12-2.51-.16-3.77-.21-.65-.03-1.31,0-1.96,0v5.67Zm-.01-14.36v5.21c1.51,0,2.98.03,4.46-.01.69-.02,1.32-.3,1.82-.81.59-.59.55-1.33.54-2.07,0-.97-.75-1.98-1.72-2.06-1.67-.14-3.36-.18-5.11-.26Z"/>
  <path class="cls-8" d="m187.01,44.7c0,4.62,0,9.24-.01,13.86,0,.23,0,.46,0,.72h-3.93v-21.65c1.16,0,2.32,0,3.48.01.12,0,.27.14.35.25,1.96,2.79,3.92,5.59,5.88,8.38,1.39,1.98,2.8,3.96,4.2,5.93.03.04.08.06.21.16v-14.72h4.01v21.65c-1.2,0-2.38,0-3.56-.01-.12,0-.26-.14-.34-.25-1.4-1.95-2.8-3.91-4.19-5.88-2-2.82-3.99-5.63-5.98-8.45-.04-.07-.08-.14-.11-.21,0,.06,0,.13,0,.19Z"/>
  <path class="cls-8" d="m146.87,59.29v-21.59c.09-.02.17-.06.24-.06,2.59,0,5.19-.08,7.77.05,2.38.12,4.61.88,6.5,2.39,1.34,1.07,2.34,2.45,2.91,4.08,1.15,3.28,1.11,6.54-.46,9.67-1.35,2.68-3.63,4.26-6.5,5.04-1.32.36-2.65.47-4.01.45-1.97-.03-3.94,0-5.9,0-.17,0-.34-.02-.54-.03Zm4-18.06v14.41c.83,0,1.62.03,2.41,0,.88-.04,1.8-.02,2.64-.25,2.79-.74,4.34-2.6,4.68-5.49.22-1.92.18-3.77-.85-5.49-.5-.83-1.09-1.56-1.95-2.04-.94-.53-1.92-.91-3.02-.95-1.29-.04-2.58-.12-3.92-.19Z"/>
  <path class="cls-9" d="m145.13,59.3c-1.52,0-3.04.02-4.56,0-.2,0-.48-.16-.59-.33-1.81-2.64-3.59-5.3-5.41-7.94-.12-.18-.41-.29-.64-.34-.3-.06-.61-.01-.97-.01v8.61h-3.98v-21.66c.29,0,.57,0,.86,0,2.44,0,4.87-.06,7.31.02,1.94.06,3.76.57,5.14,2.06,1,1.07,1.52,2.37,1.57,3.84.04,1.2.04,2.4-.48,3.53-.89,1.89-2.43,2.94-4.47,3.44,2.11,2.92,4.19,5.8,6.27,8.68-.01.04-.03.08-.04.12Zm-12.15-12.25c1.49,0,2.97.18,4.38-.04,2.58-.41,2.77-3.24,1.73-4.63-.5-.67-1.19-.97-2.04-.98-1.35-.02-2.69-.11-4.06-.17v5.81Z"/>
  <path class="cls-8" d="m149.44,24.38c2.13,2.94,4.23,5.82,6.38,8.78-1.66,0-3.21.01-4.76-.01-.17,0-.4-.17-.51-.32-1.54-2.23-3.06-4.47-4.58-6.7-.29-.42-.55-.86-.86-1.26-.11-.14-.34-.25-.53-.27-.32-.04-.66-.01-1.05-.01v8.57h-3.98V11.53c.14-.01.28-.04.43-.04,2.65,0,5.3-.07,7.95.02,2.57.08,4.75,1.04,5.92,3.51,1.19,2.51.87,5.9-1.33,7.86-.86.77-1.87,1.23-3.07,1.51Zm-5.89-9.29v5.87c1.43,0,2.81.06,4.19-.02,1.12-.07,2.02-.62,2.35-1.77.13-.45.07-.96.09-1.44.03-1.1-.93-2.28-2.01-2.38-1.52-.13-3.05-.17-4.61-.25Z"/>
  <path class="cls-9" d="m131.56,24.39c2.12,2.93,4.21,5.81,6.37,8.78-.42,0-.76,0-1.1,0-1.17,0-2.34,0-3.51,0-.34,0-.55-.1-.75-.4-1.65-2.48-3.36-4.92-4.99-7.41-.51-.78-1.12-.93-1.97-.72v8.49h-3.98V11.52c.15-.01.31-.04.48-.04,2.61,0,5.23-.08,7.83.02,2.38.1,4.49.92,5.75,3.11.39.68.65,1.47.77,2.25.23,1.47.08,2.93-.6,4.29-.81,1.62-2.11,2.61-3.85,3.07-.13.03-.26.09-.46.16Zm-5.94-3.45c1.47,0,2.87.07,4.26-.02,1.04-.07,1.92-.58,2.26-1.65.35-1.12.32-2.24-.55-3.15-.31-.32-.74-.62-1.16-.73-1.58-.42-3.19-.16-4.83-.23,0,1.85,0,3.6,0,5.36,0,.13.01.27.02.43Z"/>
  <path class="cls-9" d="m200.12,76.96v8.42h-3.94v-21.56c.18-.01.35-.03.52-.03,2.51,0,5.03-.06,7.54.02,1.52.05,3.04.28,4.31,1.26,1.51,1.17,2.45,2.66,2.44,4.64,0,1.14.06,2.27-.43,3.37-.8,1.8-2.18,2.86-4,3.43-.15.05-.29.08-.51.14,2.12,2.92,4.21,5.8,6.37,8.77h-2.86c-.37,0-.75-.05-1.11,0-.84.13-1.29-.24-1.74-.93-1.46-2.25-3.01-4.45-4.53-6.66-.01-.02-.03-.03-.04-.04-.38-.92-1.09-1.08-2.03-.84Zm.03-3.65c1.1,0,2.13,0,3.16,0,.29,0,.58-.02.87-.04,1.47-.12,2.51-1.06,2.61-2.3.19-2.38-.98-3.23-2.32-3.38-1.42-.15-2.86-.03-4.33-.03v5.75Z"/>
  <path class="cls-8" d="m119.02,76.7c2.12,2.92,4.19,5.77,6.34,8.73-1.27,0-2.42-.08-3.55.02-1.12.1-1.75-.32-2.35-1.26-1.51-2.38-3.15-4.68-4.76-6.99-.11-.16-.36-.27-.57-.3-.32-.05-.66-.01-1.05-.01v8.51h-3.97v-21.56c.18-.01.35-.03.52-.03,2.53,0,5.07-.04,7.6.01,1.47.03,2.89.41,4.13,1.2,1.36.86,2.17,2.18,2.46,3.74.49,2.58,0,4.93-2.12,6.67-.61.5-1.44.76-2.17,1.11-.15.07-.32.11-.53.17Zm-5.9-9.36v5.92c1.37,0,2.69.01,4.02,0,1.36-.02,2.44-.91,2.6-2.41.13-1.26-.23-2.79-1.84-3.07-1.55-.27-3.14-.3-4.77-.44Z"/>
  <path class="cls-6" d="m127.51,59.29h-4.41c-.49-1.34-.98-2.69-1.48-4.04-.46-1.23-.91-2.47-1.39-3.7-.05-.13-.27-.28-.41-.28-1.93.03-3.72.5-5.24,1.73-2.03,1.64-3.04,3.93-4.02,6.29h-4.38c.28-.72.53-1.41.8-2.09,1.3-3.28,2.6-6.56,3.91-9.83,1.26-3.14,2.55-6.27,3.84-9.4.06-.15.28-.32.42-.32,1.11-.03,2.22-.03,3.33,0,.18,0,.45.22.52.4.85,2.04,1.67,4.08,2.5,6.13,1.41,3.48,2.81,6.96,4.21,10.45.58,1.43,1.15,2.87,1.72,4.3.04.1.05.22.08.36Zm-10.69-16.96c-.77,2.15-1.48,4.16-2.18,6.11,1.4-.26,2.79-.53,4.23-.8-.66-1.7-1.32-3.42-2.05-5.31Z"/>
  <path class="cls-8" d="m167.4,37.64h12.81v3.71h-8.83v4.29h8.06v3.7h-8.06v6.19h8.95v3.74h-12.93v-21.63Z"/>
  <path class="cls-8" d="m118.78,11.5v3.7h-8.82v4.33h8.04v3.68h-8.04v6.22h8.96v3.72h-12.94V11.5h12.8Z"/>
  <path class="cls-8" d="m193.26,81.7v3.69h-12.94v-21.55h12.75v3.67h-8.75v4.31h7.98v3.65h-8.01v6.22h8.96Z"/>
  <path class="cls-6" d="m217.29,38.68c-.58,1.23-1.14,2.44-1.67,3.57-1.19-.38-2.29-.84-3.45-1.08-.75-.16-1.59-.12-2.36.01-1.16.2-1.43,1.4-.83,2.22.43.59,1.04,1.07,1.63,1.52,1.7,1.28,3.49,2.45,5.14,3.78,1.31,1.06,2.06,2.49,2.04,4.25-.01,1,.06,2.01-.31,2.98-.8,2.09-2.44,3.13-4.51,3.6-2.46.56-4.89.32-7.25-.55-.83-.3-1.62-.7-2.43-1.07-.21-.09-.4-.19-.23-.52.56-1.1,1.08-2.21,1.62-3.34.9.41,1.76.86,2.65,1.2,1.4.53,2.85.94,4.34.52.56-.16,1.18-.47,1.53-.9.68-.84.56-1.93-.27-2.65-1.03-.9-2.17-1.68-3.26-2.53-1.2-.94-2.5-1.78-3.56-2.86-1.9-1.94-2.26-5.07-.74-7.34.86-1.27,2.09-1.94,3.56-2.16,2.91-.45,5.68.09,8.35,1.34Z"/>
  <path class="cls-6" d="m226.92,64.89c-.59,1.25-1.15,2.44-1.68,3.55-1.08-.36-2.15-.82-3.27-1.07-.78-.17-1.66-.21-2.44-.03-1.14.26-1.68,1.45-.61,2.55.73.76,1.65,1.34,2.5,1.98,1.33,1,2.73,1.91,4.01,2.98,1.23,1.03,1.94,2.42,2.05,4.03.11,1.73-.08,3.41-1.29,4.8-1.08,1.23-2.49,1.83-4.05,2.08-2.18.34-4.33.21-6.42-.53-.93-.33-1.82-.75-2.72-1.14-.28-.12-.4-.28-.22-.62.55-1.07,1.06-2.17,1.58-3.26.87.4,1.72.81,2.59,1.17,1.27.53,2.59.74,3.97.67,1.01-.06,2-.81,2.3-1.74.24-.77-.05-1.42-.59-1.87-1.08-.92-2.22-1.76-3.35-2.61-.95-.72-1.97-1.36-2.86-2.14-1.67-1.46-2.48-3.35-2.24-5.55.29-2.58,2.05-4.2,4.62-4.57,2.84-.42,5.52.16,8.13,1.35Z"/>
  <path class="cls-7" d="m164.25,20.8c.72-1.49,1.4-2.88,2.08-4.28.76-1.56,1.5-3.12,2.27-4.67.08-.16.28-.36.43-.37,1.46-.03,2.91-.02,4.47-.02-.54,1.01-1.02,1.95-1.53,2.88-1.34,2.47-2.7,4.92-4.02,7.39-1.8,3.35-3.59,6.71-5.38,10.07-.04.08-.13.15-.15.24-.29,1.17-1.14,1.23-2.13,1.15-.79-.06-1.58-.01-2.48-.01.49-.96.92-1.82,1.38-2.68.45-.84.93-1.67,1.38-2.51.5-.94.99-1.9,1.47-2.85.07-.14.11-.38.04-.51-2.28-4.22-4.57-8.43-6.86-12.64-.08-.15-.14-.31-.24-.53,1.56,0,3.05,0,4.54.02.12,0,.28.23.35.38,1.36,2.78,2.72,5.57,4.07,8.35.08.17.17.33.3.59Z"/>
  <path class="cls-1" d="m187.01,44.7c0-.06,0-.13,0-.19.04.07.08.14.11.21-.04,0-.08-.01-.11-.02Z"/>
  <path class="cls-2" d="m145.13,59.3s.03-.08.04-.12c-.01.04-.03.08-.04.12Z"/>
</svg>