<svg xmlns="http://www.w3.org/2000/svg" width="179" height="42.385" viewBox="0 0 179 42.385"><g transform="translate(-59.974 -81.504)"><g transform="translate(117.366 89.329)"><path d="M262.266,113.893a10.359,10.359,0,0,0-3.645-1.74,15.963,15.963,0,0,0-4.021-.526h-7.26v20.693h7.26a14.113,14.113,0,0,0,4.021-.6,10.965,10.965,0,0,0,3.645-1.855,9.563,9.563,0,0,0,2.633-3.216,10.061,10.061,0,0,0,1.012-4.676,10.654,10.654,0,0,0-1.012-4.9A9.086,9.086,0,0,0,262.266,113.893Zm-.983,11.559a6.035,6.035,0,0,1-1.865,2.177,7.348,7.348,0,0,1-2.56,1.14,12.193,12.193,0,0,1-2.835.337h-3.036V114.784h3.036a14.074,14.074,0,0,1,2.835.293,6.934,6.934,0,0,1,2.56,1.082,5.863,5.863,0,0,1,1.865,2.192,7.909,7.909,0,0,1,.724,3.625A7.427,7.427,0,0,1,261.282,125.452Z" transform="translate(-247.34 -110.226)" fill="#CED4DA"/><path d="M327.29,134.064a7.042,7.042,0,0,0-2.4-1.491,8.523,8.523,0,0,0-5.9,0,6.938,6.938,0,0,0-4.007,3.813,7.493,7.493,0,0,0-.592,3.025,7.593,7.593,0,0,0,.592,3.04,7.183,7.183,0,0,0,1.606,2.352,7.3,7.3,0,0,0,2.4,1.535,8.117,8.117,0,0,0,5.9,0,7.3,7.3,0,0,0,2.4-1.535,7.211,7.211,0,0,0,1.606-2.352,7.592,7.592,0,0,0,.592-3.04,7.493,7.493,0,0,0-.592-3.025A7.087,7.087,0,0,0,327.29,134.064Zm-1.576,6.985a4.556,4.556,0,0,1-.738,1.462,3.886,3.886,0,0,1-1.244,1.052,4.137,4.137,0,0,1-3.587,0,3.867,3.867,0,0,1-1.244-1.052,4.509,4.509,0,0,1-.738-1.462,5.7,5.7,0,0,1-.245-1.637,5.553,5.553,0,0,1,.245-1.622,4.542,4.542,0,0,1,.738-1.446,3.714,3.714,0,0,1,1.244-1.038,4.277,4.277,0,0,1,3.587,0,3.732,3.732,0,0,1,1.244,1.038,4.59,4.59,0,0,1,.738,1.446,5.542,5.542,0,0,1,.246,1.622A5.686,5.686,0,0,1,325.714,141.049Z" transform="translate(-293.851 -124.389)" fill="#CED4DA"/><path d="M381.735,134.561h-.058a4.666,4.666,0,0,0-2.025-1.9,6.252,6.252,0,0,0-2.748-.614,6.61,6.61,0,0,0-2.821.585,6.478,6.478,0,0,0-2.14,1.578,7.008,7.008,0,0,0-1.36,2.338,8.49,8.49,0,0,0-.478,2.864,8.058,8.058,0,0,0,.492,2.821,7.212,7.212,0,0,0,1.374,2.324,6.415,6.415,0,0,0,2.155,1.579,6.715,6.715,0,0,0,2.834.584,6.115,6.115,0,0,0,2.618-.546,4.9,4.9,0,0,0,1.924-1.579h.057v1.026a8.083,8.083,0,0,1-.217,1.936,3.973,3.973,0,0,1-.723,1.525,3.384,3.384,0,0,1-1.36,1.012,5.324,5.324,0,0,1-2.1.366,6.858,6.858,0,0,1-2.574-.512,7.151,7.151,0,0,1-2.285-1.475l-2,2.718a8.45,8.45,0,0,0,1.5.993,11.055,11.055,0,0,0,1.751.731,12.249,12.249,0,0,0,1.851.439,11.681,11.681,0,0,0,1.779.146,9.479,9.479,0,0,0,3.5-.585,6.449,6.449,0,0,0,2.444-1.651,6.667,6.667,0,0,0,1.432-2.6,11.875,11.875,0,0,0,.463-3.434V132.457h-3.3Zm-.29,6.483a4.386,4.386,0,0,1-.824,1.412,3.92,3.92,0,0,1-3.023,1.34,3.586,3.586,0,0,1-1.663-.378,3.848,3.848,0,0,1-1.244-1.005A4.7,4.7,0,0,1,373.91,141a4.909,4.909,0,0,1-.274-1.632,5.438,5.438,0,0,1,.274-1.748,4.257,4.257,0,0,1,.781-1.413,3.663,3.663,0,0,1,1.244-.947,3.911,3.911,0,0,1,1.692-.35,4.011,4.011,0,0,1,1.707.35,3.83,3.83,0,0,1,1.287.961,4.362,4.362,0,0,1,.824,1.427,5.106,5.106,0,0,1,.29,1.719A4.888,4.888,0,0,1,381.445,141.044Z" transform="translate(-332.501 -124.391)" fill="#CED4DA"/><path d="M429.873,120.121h-3.414v4.062H424.03v2.806h2.429v6.547a9.287,9.287,0,0,0,.189,1.914,4.021,4.021,0,0,0,.694,1.578,3.419,3.419,0,0,0,1.374,1.081,5.484,5.484,0,0,0,2.256.4,7.7,7.7,0,0,0,1.215-.1,5.742,5.742,0,0,0,1.1-.278l-.116-2.748a2.978,2.978,0,0,1-.723.219,4.2,4.2,0,0,1-.752.073q-1.157,0-1.49-.614a3.229,3.229,0,0,1-.333-1.549v-6.517h3.471v-2.806h-3.471Z" transform="translate(-369.908 -116.117)" fill="#CED4DA"/><path d="M471.021,134.064a7.045,7.045,0,0,0-2.4-1.491,8.523,8.523,0,0,0-5.9,0,6.939,6.939,0,0,0-4.007,3.813,7.494,7.494,0,0,0-.592,3.025,7.593,7.593,0,0,0,.592,3.04,7.182,7.182,0,0,0,1.606,2.352,7.306,7.306,0,0,0,2.4,1.535,8.117,8.117,0,0,0,5.9,0,7.306,7.306,0,0,0,2.4-1.535,7.211,7.211,0,0,0,1.606-2.352,7.594,7.594,0,0,0,.592-3.04,7.494,7.494,0,0,0-.592-3.025A7.087,7.087,0,0,0,471.021,134.064Zm-1.576,6.985a4.557,4.557,0,0,1-.738,1.462,3.887,3.887,0,0,1-1.244,1.052,4.137,4.137,0,0,1-3.587,0,3.868,3.868,0,0,1-1.244-1.052,4.5,4.5,0,0,1-.738-1.462,5.687,5.687,0,0,1-.246-1.637,5.543,5.543,0,0,1,.246-1.622,4.535,4.535,0,0,1,.738-1.446,3.714,3.714,0,0,1,1.244-1.038,4.277,4.277,0,0,1,3.587,0,3.732,3.732,0,0,1,1.244,1.038,4.592,4.592,0,0,1,.738,1.446,5.542,5.542,0,0,1,.246,1.622A5.686,5.686,0,0,1,469.445,141.049Z" transform="translate(-393.556 -124.389)" fill="#CED4DA"/><path d="M526.74,134.064a7.045,7.045,0,0,0-2.4-1.491,8.524,8.524,0,0,0-5.9,0,6.939,6.939,0,0,0-4.007,3.813,7.492,7.492,0,0,0-.592,3.025,7.592,7.592,0,0,0,.592,3.04,7.182,7.182,0,0,0,1.606,2.352,7.3,7.3,0,0,0,2.4,1.535,8.118,8.118,0,0,0,5.9,0,7.306,7.306,0,0,0,2.4-1.535,7.209,7.209,0,0,0,1.606-2.352,7.592,7.592,0,0,0,.592-3.04,7.492,7.492,0,0,0-.592-3.025A7.085,7.085,0,0,0,526.74,134.064Zm-1.576,6.985a4.556,4.556,0,0,1-.738,1.462,3.887,3.887,0,0,1-1.244,1.052,4.138,4.138,0,0,1-3.587,0,3.867,3.867,0,0,1-1.244-1.052,4.509,4.509,0,0,1-.738-1.462,5.7,5.7,0,0,1-.245-1.637,5.552,5.552,0,0,1,.245-1.622,4.541,4.541,0,0,1,.738-1.446,3.713,3.713,0,0,1,1.244-1.038,4.277,4.277,0,0,1,3.587,0,3.733,3.733,0,0,1,1.244,1.038,4.59,4.59,0,0,1,.738,1.446,5.542,5.542,0,0,1,.246,1.622A5.686,5.686,0,0,1,525.164,141.049Z" transform="translate(-432.207 -124.389)" fill="#CED4DA"/><path d="M571.526,120.121h-3.414v4.062h-2.429v2.806h2.429v6.547a9.287,9.287,0,0,0,.189,1.914,4.019,4.019,0,0,0,.694,1.578,3.416,3.416,0,0,0,1.374,1.081,5.484,5.484,0,0,0,2.256.4,7.7,7.7,0,0,0,1.215-.1,5.741,5.741,0,0,0,1.1-.278l-.116-2.748a2.985,2.985,0,0,1-.723.219,4.2,4.2,0,0,1-.752.073q-1.157,0-1.49-.614a3.23,3.23,0,0,1-.333-1.549v-6.517H575v-2.806h-3.471Z" transform="translate(-468.171 -116.117)" fill="#CED4DA"/><path d="M615.1,118.273a5.193,5.193,0,0,0-.912-1.813,4.606,4.606,0,0,0-1.591-1.271,5.183,5.183,0,0,0-2.329-.482,4.916,4.916,0,0,0-1.446.2,4.668,4.668,0,0,0-2.1,1.3,3.361,3.361,0,0,0-.592.863h-.058V107.05H602.6v22.095h3.472v-7.657a4.751,4.751,0,0,1,.2-1.374,3.841,3.841,0,0,1,.608-1.213,3,3,0,0,1,1.012-.863,3.053,3.053,0,0,1,1.446-.321,2.319,2.319,0,0,1,1.344.351,2.39,2.39,0,0,1,.782.892,3.664,3.664,0,0,1,.361,1.2,9.721,9.721,0,0,1,.087,1.271v7.716h3.471v-8.768A7.731,7.731,0,0,0,615.1,118.273Z" transform="translate(-493.783 -107.05)" fill="#CED4DA"/></g><path d="M94.732,99.494l-1.2,1.027,1.239,4.2,8.853,16.113H91.451l-1.008-1.68-1.151.03,2.569-10.838,1.185-1.359-1.961-6.963,5.13-4.268.028-.535.247-2.2-5.413,1.218-.283-.717L87.88,94.677a16.746,16.746,0,0,1-2.934-2.767c-1.567.557,1.044,6.62,1.044,6.62l-1.176.153.595,3.7L78.5,107.073l-5.519,10.72-7.269,3.04h-.443L84.445,87.618l3.161,4.717,2.938-1.025-6.1-9.806L59.974,123.889h48.942Zm-7.307,14.533.223,5.456.332,1.349H84.83l-1.131-1.47-.043-1.628Z" transform="translate(0)" fill="#CED4DA"/></g></svg>